<svg width="406" height="412" viewBox="0 0 406 412" fill="none" xmlns="http://www.w3.org/2000/svg">
<path d="M400.298 147.76C404.44 151.337 406.117 157 404.592 162.256L335.123 401.674C332.28 411.472 320.247 415.036 312.526 408.367L215.68 324.714C209.438 319.322 209.187 309.729 215.138 304.018L280.69 241.114C284.638 237.325 286.017 231.582 284.219 226.413L212.415 19.9919C207.709 6.46356 223.95 -4.56542 234.789 4.79751L400.298 147.76Z" fill="url(#paint0_linear_52_4)" fill-opacity="0.75"/>
<path d="M120.97 225.302C119.172 230.471 120.551 236.214 124.5 240.003L189.973 302.832C195.924 308.543 195.673 318.136 189.431 323.528L92.6208 407.149C84.8997 413.819 72.867 410.254 70.0238 400.456L0.555096 161.039C-0.96996 155.783 0.707406 150.12 4.84901 146.542L170.471 3.48214C181.311 -5.88081 197.551 5.14819 192.845 18.6765L120.97 225.302Z" fill="url(#paint1_linear_52_4)" fill-opacity="0.75"/>
<defs>
<linearGradient id="paint0_linear_52_4" x1="123.773" y1="-8.89802e-06" x2="391.661" y2="285.011" gradientUnits="userSpaceOnUse">
<stop stop-color="#A6A6A6"/>
<stop offset="1" stop-color="#5B5B5B"/>
</linearGradient>
<linearGradient id="paint1_linear_52_4" x1="123.773" y1="-8.89802e-06" x2="391.661" y2="285.011" gradientUnits="userSpaceOnUse">
<stop stop-color="#A6A6A6"/>
<stop offset="1" stop-color="#5B5B5B"/>
</linearGradient>
</defs>
</svg>
